<mxfile host="app.diagrams.net" agent="Mozilla/5.0 (Windows NT 10.0; Win64; x64) AppleWebKit/537.36 (KHTML, like Gecko) Chrome/138.0.0.0 Safari/537.36" version="28.1.1">
  <diagram id="C5RBs43oDa-KdzZeNtuy" name="Page-1">
    <mxGraphModel dx="1699" dy="1618" grid="1" gridSize="10" guides="1" tooltips="1" connect="1" arrows="1" fold="1" page="1" pageScale="1" pageWidth="827" pageHeight="1169" math="0" shadow="0">
      <root>
        <mxCell id="WIyWlLk6GJQsqaUBKTNV-0" />
        <mxCell id="WIyWlLk6GJQsqaUBKTNV-1" parent="WIyWlLk6GJQsqaUBKTNV-0" />
        <mxCell id="ZGI1uP7I76oorq0Ib6Wb-18" style="edgeStyle=orthogonalEdgeStyle;rounded=0;orthogonalLoop=1;jettySize=auto;html=1;exitX=0.5;exitY=1;exitDx=0;exitDy=0;entryX=1;entryY=0.5;entryDx=0;entryDy=0;endArrow=none;endFill=0;" parent="WIyWlLk6GJQsqaUBKTNV-1" source="JFm_ST4TKk0397qkzb1m-3" target="ZGI1uP7I76oorq0Ib6Wb-17" edge="1">
          <mxGeometry relative="1" as="geometry">
            <Array as="points">
              <mxPoint x="780" y="310" />
              <mxPoint x="780" y="310" />
            </Array>
          </mxGeometry>
        </mxCell>
        <mxCell id="kZufIljrzdc1vVcMqMFh-1" style="edgeStyle=orthogonalEdgeStyle;rounded=0;orthogonalLoop=1;jettySize=auto;html=1;exitX=1;exitY=0.5;exitDx=0;exitDy=0;entryX=0;entryY=0.5;entryDx=0;entryDy=0;endArrow=none;endFill=0;" parent="WIyWlLk6GJQsqaUBKTNV-1" source="kZufIljrzdc1vVcMqMFh-2" target="kZufIljrzdc1vVcMqMFh-0" edge="1">
          <mxGeometry relative="1" as="geometry">
            <mxPoint x="1080" y="130" as="targetPoint" />
          </mxGeometry>
        </mxCell>
        <mxCell id="kZufIljrzdc1vVcMqMFh-12" style="edgeStyle=orthogonalEdgeStyle;rounded=0;orthogonalLoop=1;jettySize=auto;html=1;exitX=1;exitY=0.75;exitDx=0;exitDy=0;endArrow=none;endFill=0;entryX=0;entryY=0.5;entryDx=0;entryDy=0;" parent="WIyWlLk6GJQsqaUBKTNV-1" source="JFm_ST4TKk0397qkzb1m-3" target="kZufIljrzdc1vVcMqMFh-11" edge="1">
          <mxGeometry relative="1" as="geometry">
            <mxPoint x="1110" y="70" as="targetPoint" />
            <Array as="points">
              <mxPoint x="1070" y="93" />
              <mxPoint x="1070" y="48" />
              <mxPoint x="1120" y="48" />
            </Array>
          </mxGeometry>
        </mxCell>
        <mxCell id="JFm_ST4TKk0397qkzb1m-3" value="Producto" style="rounded=0;whiteSpace=wrap;html=1;" parent="WIyWlLk6GJQsqaUBKTNV-1" vertex="1">
          <mxGeometry x="720" y="47" width="120" height="60" as="geometry" />
        </mxCell>
        <mxCell id="q_Puny2AuOkgBqoYq8uL-15" style="edgeStyle=orthogonalEdgeStyle;rounded=0;orthogonalLoop=1;jettySize=auto;html=1;exitX=0.15;exitY=0;exitDx=0;exitDy=0;entryX=1;entryY=0.5;entryDx=0;entryDy=0;endArrow=none;endFill=0;exitPerimeter=0;" parent="WIyWlLk6GJQsqaUBKTNV-1" source="JFm_ST4TKk0397qkzb1m-5" target="q_Puny2AuOkgBqoYq8uL-14" edge="1">
          <mxGeometry relative="1" as="geometry" />
        </mxCell>
        <mxCell id="JFm_ST4TKk0397qkzb1m-5" value="Usuario" style="rounded=0;whiteSpace=wrap;html=1;" parent="WIyWlLk6GJQsqaUBKTNV-1" vertex="1">
          <mxGeometry x="235" y="47" width="120" height="60" as="geometry" />
        </mxCell>
        <mxCell id="JFm_ST4TKk0397qkzb1m-64" style="edgeStyle=orthogonalEdgeStyle;rounded=0;orthogonalLoop=1;jettySize=auto;html=1;entryX=0.5;entryY=1;entryDx=0;entryDy=0;endArrow=none;endFill=0;exitX=1;exitY=0.25;exitDx=0;exitDy=0;" parent="WIyWlLk6GJQsqaUBKTNV-1" source="JFm_ST4TKk0397qkzb1m-6" target="q_Puny2AuOkgBqoYq8uL-2" edge="1">
          <mxGeometry relative="1" as="geometry">
            <Array as="points">
              <mxPoint x="460" y="415" />
            </Array>
            <mxPoint x="460" y="347.5" as="targetPoint" />
          </mxGeometry>
        </mxCell>
        <mxCell id="FPQpx2_Bj9Fgrcibr409-18" style="edgeStyle=orthogonalEdgeStyle;rounded=0;orthogonalLoop=1;jettySize=auto;html=1;exitX=0.5;exitY=0;exitDx=0;exitDy=0;entryX=0.5;entryY=1;entryDx=0;entryDy=0;endArrow=none;endFill=0;" parent="WIyWlLk6GJQsqaUBKTNV-1" source="FPQpx2_Bj9Fgrcibr409-19" target="FPQpx2_Bj9Fgrcibr409-17" edge="1">
          <mxGeometry relative="1" as="geometry" />
        </mxCell>
        <mxCell id="FPQpx2_Bj9Fgrcibr409-21" style="edgeStyle=orthogonalEdgeStyle;rounded=0;orthogonalLoop=1;jettySize=auto;html=1;entryX=0.5;entryY=0;entryDx=0;entryDy=0;endArrow=none;endFill=0;exitX=1;exitY=0.75;exitDx=0;exitDy=0;" parent="WIyWlLk6GJQsqaUBKTNV-1" source="JFm_ST4TKk0397qkzb1m-6" target="FPQpx2_Bj9Fgrcibr409-15" edge="1">
          <mxGeometry relative="1" as="geometry" />
        </mxCell>
        <mxCell id="JFm_ST4TKk0397qkzb1m-6" value="Orden" style="whiteSpace=wrap;html=1;" parent="WIyWlLk6GJQsqaUBKTNV-1" vertex="1">
          <mxGeometry x="235" y="400" width="120" height="60" as="geometry" />
        </mxCell>
        <mxCell id="JFm_ST4TKk0397qkzb1m-10" value="" style="endArrow=none;startArrow=none;html=1;rounded=0;entryX=0.5;entryY=1;entryDx=0;entryDy=0;exitX=0.5;exitY=0;exitDx=0;exitDy=0;endFill=0;startFill=0;" parent="WIyWlLk6GJQsqaUBKTNV-1" source="JFm_ST4TKk0397qkzb1m-6" target="JFm_ST4TKk0397qkzb1m-19" edge="1">
          <mxGeometry width="50" height="50" relative="1" as="geometry">
            <mxPoint x="545" y="340" as="sourcePoint" />
            <mxPoint x="595" y="290" as="targetPoint" />
          </mxGeometry>
        </mxCell>
        <mxCell id="JFm_ST4TKk0397qkzb1m-20" style="edgeStyle=orthogonalEdgeStyle;rounded=0;orthogonalLoop=1;jettySize=auto;html=1;endArrow=none;endFill=0;exitX=0.5;exitY=0;exitDx=0;exitDy=0;entryX=0.5;entryY=1;entryDx=0;entryDy=0;" parent="WIyWlLk6GJQsqaUBKTNV-1" source="JFm_ST4TKk0397qkzb1m-19" target="JFm_ST4TKk0397qkzb1m-5" edge="1">
          <mxGeometry relative="1" as="geometry">
            <mxPoint x="290" y="140" as="targetPoint" />
            <Array as="points">
              <mxPoint x="295" y="130" />
              <mxPoint x="295" y="130" />
            </Array>
          </mxGeometry>
        </mxCell>
        <mxCell id="JFm_ST4TKk0397qkzb1m-19" value="compra" style="rhombus;whiteSpace=wrap;html=1;" parent="WIyWlLk6GJQsqaUBKTNV-1" vertex="1">
          <mxGeometry x="255" y="220" width="80" height="80" as="geometry" />
        </mxCell>
        <mxCell id="JFm_ST4TKk0397qkzb1m-28" value="" style="edgeStyle=orthogonalEdgeStyle;rounded=0;orthogonalLoop=1;jettySize=auto;html=1;endArrow=none;endFill=0;entryX=0;entryY=0.5;entryDx=0;entryDy=0;exitX=1;exitY=0.5;exitDx=0;exitDy=0;" parent="WIyWlLk6GJQsqaUBKTNV-1" source="JFm_ST4TKk0397qkzb1m-5" target="Eh1zNCX-W6txuUn7iYpB-6" edge="1">
          <mxGeometry relative="1" as="geometry">
            <mxPoint x="700" y="110" as="sourcePoint" />
            <mxPoint x="390" y="77" as="targetPoint" />
          </mxGeometry>
        </mxCell>
        <mxCell id="JFm_ST4TKk0397qkzb1m-31" value="1" style="text;html=1;align=center;verticalAlign=middle;resizable=0;points=[];autosize=1;strokeColor=none;fillColor=none;fontSize=12;fontStyle=1" parent="WIyWlLk6GJQsqaUBKTNV-1" vertex="1">
          <mxGeometry x="265" y="108" width="30" height="30" as="geometry" />
        </mxCell>
        <mxCell id="JFm_ST4TKk0397qkzb1m-33" value="N" style="text;html=1;align=center;verticalAlign=middle;resizable=0;points=[];autosize=1;strokeColor=none;fillColor=none;fontStyle=1" parent="WIyWlLk6GJQsqaUBKTNV-1" vertex="1">
          <mxGeometry x="265" y="370" width="30" height="30" as="geometry" />
        </mxCell>
        <mxCell id="JFm_ST4TKk0397qkzb1m-49" value="N" style="text;html=1;align=center;verticalAlign=middle;resizable=0;points=[];autosize=1;strokeColor=none;fillColor=none;fontStyle=1" parent="WIyWlLk6GJQsqaUBKTNV-1" vertex="1">
          <mxGeometry x="355" y="48" width="30" height="30" as="geometry" />
        </mxCell>
        <mxCell id="JFm_ST4TKk0397qkzb1m-57" value="N" style="text;html=1;align=center;verticalAlign=middle;resizable=0;points=[];autosize=1;strokeColor=none;fillColor=none;fontStyle=1" parent="WIyWlLk6GJQsqaUBKTNV-1" vertex="1">
          <mxGeometry x="690" y="47" width="30" height="30" as="geometry" />
        </mxCell>
        <mxCell id="JFm_ST4TKk0397qkzb1m-58" value="Categoria" style="rounded=0;whiteSpace=wrap;html=1;" parent="WIyWlLk6GJQsqaUBKTNV-1" vertex="1">
          <mxGeometry x="720" y="-305" width="120" height="60" as="geometry" />
        </mxCell>
        <mxCell id="JFm_ST4TKk0397qkzb1m-60" style="edgeStyle=orthogonalEdgeStyle;rounded=0;orthogonalLoop=1;jettySize=auto;html=1;entryX=0.5;entryY=1;entryDx=0;entryDy=0;endArrow=none;endFill=0;exitX=0.5;exitY=0;exitDx=0;exitDy=0;" parent="WIyWlLk6GJQsqaUBKTNV-1" source="JFm_ST4TKk0397qkzb1m-59" target="JFm_ST4TKk0397qkzb1m-58" edge="1">
          <mxGeometry relative="1" as="geometry">
            <mxPoint x="810" y="-190" as="sourcePoint" />
          </mxGeometry>
        </mxCell>
        <mxCell id="JFm_ST4TKk0397qkzb1m-61" style="edgeStyle=orthogonalEdgeStyle;rounded=0;orthogonalLoop=1;jettySize=auto;html=1;entryX=0.5;entryY=0;entryDx=0;entryDy=0;endArrow=none;endFill=0;exitX=0.5;exitY=1;exitDx=0;exitDy=0;" parent="WIyWlLk6GJQsqaUBKTNV-1" source="JFm_ST4TKk0397qkzb1m-59" target="JFm_ST4TKk0397qkzb1m-3" edge="1">
          <mxGeometry relative="1" as="geometry">
            <Array as="points">
              <mxPoint x="780" y="-20" />
            </Array>
          </mxGeometry>
        </mxCell>
        <mxCell id="JFm_ST4TKk0397qkzb1m-59" value="ProductoCategoria" style="rhombus;whiteSpace=wrap;html=1;" parent="WIyWlLk6GJQsqaUBKTNV-1" vertex="1">
          <mxGeometry x="720" y="-210" width="120" height="110" as="geometry" />
        </mxCell>
        <mxCell id="JFm_ST4TKk0397qkzb1m-62" value="N" style="text;html=1;align=center;verticalAlign=middle;resizable=0;points=[];autosize=1;strokeColor=none;fillColor=none;fontStyle=1" parent="WIyWlLk6GJQsqaUBKTNV-1" vertex="1">
          <mxGeometry x="750" y="-245" width="30" height="30" as="geometry" />
        </mxCell>
        <mxCell id="JFm_ST4TKk0397qkzb1m-63" value="N" style="text;html=1;align=center;verticalAlign=middle;resizable=0;points=[];autosize=1;strokeColor=none;fillColor=none;fontStyle=1" parent="WIyWlLk6GJQsqaUBKTNV-1" vertex="1">
          <mxGeometry x="750" y="18" width="30" height="30" as="geometry" />
        </mxCell>
        <mxCell id="ZGI1uP7I76oorq0Ib6Wb-0" value="&lt;div style=&quot;text-align: left;&quot;&gt;&lt;b style=&quot;background-color: initial;&quot;&gt;&lt;u&gt;idCategoria&lt;/u&gt;&lt;/b&gt;&lt;/div&gt;&lt;div style=&quot;text-align: left;&quot;&gt;&lt;span style=&quot;background-color: initial;&quot;&gt;nombre&lt;/span&gt;&lt;/div&gt;" style="text;html=1;strokeColor=none;fillColor=none;align=center;verticalAlign=middle;rounded=0;whiteSpace=wrap;" parent="WIyWlLk6GJQsqaUBKTNV-1" vertex="1">
          <mxGeometry x="730" y="-340" width="50" height="20" as="geometry" />
        </mxCell>
        <mxCell id="ZGI1uP7I76oorq0Ib6Wb-3" value="&lt;div style=&quot;&quot;&gt;&lt;div style=&quot;border-color: var(--border-color);&quot;&gt;&lt;b style=&quot;background-color: initial; border-color: var(--border-color);&quot;&gt;&lt;u style=&quot;border-color: var(--border-color);&quot;&gt;&lt;font style=&quot;border-color: var(--border-color);&quot;&gt;idProducto&lt;/font&gt;&lt;/u&gt;&lt;/b&gt;&lt;br&gt;&lt;/div&gt;&lt;div style=&quot;border-color: var(--border-color);&quot;&gt;&lt;b style=&quot;background-color: initial; border-color: var(--border-color);&quot;&gt;&lt;u style=&quot;border-color: var(--border-color);&quot;&gt;&lt;font style=&quot;border-color: var(--border-color);&quot;&gt;&lt;b style=&quot;border-color: var(--border-color); background-color: initial;&quot;&gt;&lt;u style=&quot;border-color: var(--border-color);&quot;&gt;idCategoria&lt;/u&gt;&lt;/b&gt;&lt;br&gt;&lt;/font&gt;&lt;/u&gt;&lt;/b&gt;&lt;/div&gt;&lt;/div&gt;" style="text;html=1;strokeColor=none;fillColor=none;align=left;verticalAlign=middle;whiteSpace=wrap;rounded=0;" parent="WIyWlLk6GJQsqaUBKTNV-1" vertex="1">
          <mxGeometry x="827" y="-200" width="50" height="20" as="geometry" />
        </mxCell>
        <mxCell id="ZGI1uP7I76oorq0Ib6Wb-7" value="&lt;b style=&quot;border-color: var(--border-color);&quot;&gt;&lt;u style=&quot;border-color: var(--border-color);&quot;&gt;idUsuario&lt;/u&gt;&lt;/b&gt;&lt;div&gt;&lt;font style=&quot;font-size: 12px;&quot;&gt;&lt;b style=&quot;text-decoration-line: underline;&quot;&gt;idProducto&lt;/b&gt;&lt;br&gt;cantidad&lt;/font&gt;&lt;u style=&quot;font-weight: bold;&quot;&gt;&lt;font style=&quot;font-size: 12px;&quot;&gt;&lt;br&gt;&lt;/font&gt;&lt;/u&gt;&lt;/div&gt;" style="text;html=1;strokeColor=none;fillColor=none;align=left;verticalAlign=middle;whiteSpace=wrap;rounded=0;" parent="WIyWlLk6GJQsqaUBKTNV-1" vertex="1">
          <mxGeometry x="570" width="82.5" height="48" as="geometry" />
        </mxCell>
        <mxCell id="ZGI1uP7I76oorq0Ib6Wb-9" value="&lt;b style=&quot;border-color: var(--border-color); text-align: center;&quot;&gt;&lt;u style=&quot;border-color: var(--border-color);&quot;&gt;&lt;font style=&quot;border-color: var(--border-color);&quot;&gt;idProducto&lt;/font&gt;&lt;/u&gt;&lt;/b&gt;&lt;span style=&quot;font-weight: normal;&quot;&gt;&lt;br&gt;nombre&lt;br&gt;precio&lt;/span&gt;&lt;div&gt;&lt;span style=&quot;font-weight: normal;&quot;&gt;talle&amp;nbsp;&lt;/span&gt;&lt;/div&gt;&lt;div&gt;&lt;span style=&quot;font-weight: normal;&quot;&gt;stock&lt;/span&gt;&lt;/div&gt;&lt;div&gt;&lt;span style=&quot;font-weight: normal;&quot;&gt;estilo&lt;br&gt;descripcion&lt;br&gt;&lt;/span&gt;&lt;/div&gt;" style="text;html=1;strokeColor=none;fillColor=none;align=left;verticalAlign=middle;whiteSpace=wrap;rounded=0;fontStyle=1" parent="WIyWlLk6GJQsqaUBKTNV-1" vertex="1">
          <mxGeometry x="792" y="-60" width="100" height="99" as="geometry" />
        </mxCell>
        <mxCell id="ZGI1uP7I76oorq0Ib6Wb-13" value="Calzado" style="rounded=0;whiteSpace=wrap;html=1;" parent="WIyWlLk6GJQsqaUBKTNV-1" vertex="1">
          <mxGeometry x="560" y="390" width="120" height="60" as="geometry" />
        </mxCell>
        <mxCell id="ZGI1uP7I76oorq0Ib6Wb-14" value="Vestimenta" style="rounded=0;whiteSpace=wrap;html=1;" parent="WIyWlLk6GJQsqaUBKTNV-1" vertex="1">
          <mxGeometry x="720" y="390" width="120" height="60" as="geometry" />
        </mxCell>
        <mxCell id="ZGI1uP7I76oorq0Ib6Wb-16" value="Accesorio" style="rounded=0;whiteSpace=wrap;html=1;" parent="WIyWlLk6GJQsqaUBKTNV-1" vertex="1">
          <mxGeometry x="880" y="390" width="120" height="60" as="geometry" />
        </mxCell>
        <mxCell id="ZGI1uP7I76oorq0Ib6Wb-19" style="edgeStyle=orthogonalEdgeStyle;rounded=0;orthogonalLoop=1;jettySize=auto;html=1;exitX=0;exitY=0.75;exitDx=0;exitDy=0;entryX=0.5;entryY=0;entryDx=0;entryDy=0;endArrow=none;endFill=0;" parent="WIyWlLk6GJQsqaUBKTNV-1" source="ZGI1uP7I76oorq0Ib6Wb-17" target="ZGI1uP7I76oorq0Ib6Wb-16" edge="1">
          <mxGeometry relative="1" as="geometry">
            <Array as="points">
              <mxPoint x="940" y="360" />
            </Array>
          </mxGeometry>
        </mxCell>
        <mxCell id="ZGI1uP7I76oorq0Ib6Wb-20" style="edgeStyle=orthogonalEdgeStyle;rounded=0;orthogonalLoop=1;jettySize=auto;html=1;exitX=0;exitY=0.25;exitDx=0;exitDy=0;entryX=0.5;entryY=0;entryDx=0;entryDy=0;endArrow=none;endFill=0;" parent="WIyWlLk6GJQsqaUBKTNV-1" source="ZGI1uP7I76oorq0Ib6Wb-17" target="ZGI1uP7I76oorq0Ib6Wb-13" edge="1">
          <mxGeometry relative="1" as="geometry">
            <Array as="points">
              <mxPoint x="620" y="360" />
            </Array>
          </mxGeometry>
        </mxCell>
        <mxCell id="ZGI1uP7I76oorq0Ib6Wb-21" style="edgeStyle=orthogonalEdgeStyle;rounded=0;orthogonalLoop=1;jettySize=auto;html=1;exitX=0;exitY=0.5;exitDx=0;exitDy=0;entryX=0.5;entryY=0;entryDx=0;entryDy=0;endArrow=none;endFill=0;" parent="WIyWlLk6GJQsqaUBKTNV-1" source="ZGI1uP7I76oorq0Ib6Wb-17" target="ZGI1uP7I76oorq0Ib6Wb-14" edge="1">
          <mxGeometry relative="1" as="geometry" />
        </mxCell>
        <mxCell id="ZGI1uP7I76oorq0Ib6Wb-17" value="" style="triangle;whiteSpace=wrap;html=1;rotation=-90;" parent="WIyWlLk6GJQsqaUBKTNV-1" vertex="1">
          <mxGeometry x="765" y="330" width="30" height="30" as="geometry" />
        </mxCell>
        <mxCell id="ZGI1uP7I76oorq0Ib6Wb-29" value="&lt;u&gt;idUsuario&lt;/u&gt;&lt;br&gt;&lt;span style=&quot;font-weight: normal;&quot;&gt;correo&lt;br&gt;userPassword&lt;/span&gt;&lt;br&gt;&lt;span style=&quot;font-weight: 400;&quot;&gt;nombre&lt;br&gt;&lt;/span&gt;&lt;span style=&quot;font-weight: normal;&quot;&gt;apellido&lt;/span&gt;&lt;br&gt;&lt;span style=&quot;font-weight: normal;&quot;&gt;fechaNacimiento&lt;/span&gt;&lt;br&gt;&lt;span style=&quot;font-weight: normal;&quot;&gt;telefono&lt;br&gt;tipo&lt;/span&gt;&lt;br&gt;&lt;div style=&quot;font-weight: normal;&quot;&gt;&lt;/div&gt;" style="text;html=1;strokeColor=none;fillColor=none;align=left;verticalAlign=middle;whiteSpace=wrap;rounded=0;fontStyle=1" parent="WIyWlLk6GJQsqaUBKTNV-1" vertex="1">
          <mxGeometry x="265" y="-81.75" width="115" height="120.5" as="geometry" />
        </mxCell>
        <mxCell id="ZGI1uP7I76oorq0Ib6Wb-31" value="&lt;u&gt;idOrden&lt;br&gt;&lt;/u&gt;&lt;span style=&quot;border-color: var(--border-color);&quot;&gt;&lt;span style=&quot;border-color: var(--border-color);&quot;&gt;&lt;span style=&quot;font-weight: 400;&quot;&gt;idUsuario&lt;/span&gt;&lt;/span&gt;&lt;/span&gt;&lt;font style=&quot;border-color: var(--border-color);&quot;&gt;&lt;span style=&quot;border-color: var(--border-color); font-weight: normal;&quot;&gt;&lt;br&gt;&lt;/span&gt;&lt;span style=&quot;font-weight: normal;&quot;&gt;idFormaDePago&lt;/span&gt;&lt;br style=&quot;border-color: var(--border-color);&quot;&gt;&lt;span style=&quot;font-weight: 400;&quot;&gt;fecha&lt;br&gt;&lt;/span&gt;&lt;span style=&quot;font-weight: normal;&quot;&gt;monto&lt;/span&gt;&lt;br style=&quot;border-color: var(--border-color);&quot;&gt;&lt;/font&gt;&lt;div style=&quot;font-weight: normal;&quot;&gt;&lt;/div&gt;" style="text;html=1;strokeColor=none;fillColor=none;align=left;verticalAlign=middle;whiteSpace=wrap;rounded=0;fontStyle=1" parent="WIyWlLk6GJQsqaUBKTNV-1" vertex="1">
          <mxGeometry x="305" y="470" width="105" height="80" as="geometry" />
        </mxCell>
        <mxCell id="ZGI1uP7I76oorq0Ib6Wb-44" style="edgeStyle=orthogonalEdgeStyle;rounded=0;orthogonalLoop=1;jettySize=auto;html=1;exitX=0.5;exitY=1;exitDx=0;exitDy=0;entryX=1;entryY=0.5;entryDx=0;entryDy=0;endArrow=none;endFill=0;" parent="WIyWlLk6GJQsqaUBKTNV-1" source="ZGI1uP7I76oorq0Ib6Wb-32" target="ZGI1uP7I76oorq0Ib6Wb-39" edge="1">
          <mxGeometry relative="1" as="geometry" />
        </mxCell>
        <mxCell id="ZGI1uP7I76oorq0Ib6Wb-32" value="FormaDePago" style="whiteSpace=wrap;html=1;" parent="WIyWlLk6GJQsqaUBKTNV-1" vertex="1">
          <mxGeometry x="65" y="630" width="120" height="60" as="geometry" />
        </mxCell>
        <mxCell id="ZGI1uP7I76oorq0Ib6Wb-33" value="PagoOnline" style="rounded=0;whiteSpace=wrap;html=1;" parent="WIyWlLk6GJQsqaUBKTNV-1" vertex="1">
          <mxGeometry x="-85" y="770" width="120" height="60" as="geometry" />
        </mxCell>
        <mxCell id="ZGI1uP7I76oorq0Ib6Wb-34" value="Efectivo" style="rounded=0;whiteSpace=wrap;html=1;" parent="WIyWlLk6GJQsqaUBKTNV-1" vertex="1">
          <mxGeometry x="67.5" y="770" width="120" height="60" as="geometry" />
        </mxCell>
        <mxCell id="ZGI1uP7I76oorq0Ib6Wb-37" style="edgeStyle=orthogonalEdgeStyle;rounded=0;orthogonalLoop=1;jettySize=auto;html=1;exitX=0;exitY=0.25;exitDx=0;exitDy=0;entryX=0.5;entryY=0;entryDx=0;entryDy=0;endArrow=none;endFill=0;" parent="WIyWlLk6GJQsqaUBKTNV-1" source="ZGI1uP7I76oorq0Ib6Wb-39" target="ZGI1uP7I76oorq0Ib6Wb-33" edge="1">
          <mxGeometry relative="1" as="geometry">
            <Array as="points">
              <mxPoint x="-25" y="740" />
            </Array>
          </mxGeometry>
        </mxCell>
        <mxCell id="ZGI1uP7I76oorq0Ib6Wb-38" style="edgeStyle=orthogonalEdgeStyle;rounded=0;orthogonalLoop=1;jettySize=auto;html=1;exitX=0;exitY=0.75;exitDx=0;exitDy=0;entryX=0.5;entryY=0;entryDx=0;entryDy=0;endArrow=none;endFill=0;" parent="WIyWlLk6GJQsqaUBKTNV-1" source="ZGI1uP7I76oorq0Ib6Wb-39" target="ZGI1uP7I76oorq0Ib6Wb-34" edge="1">
          <mxGeometry relative="1" as="geometry">
            <Array as="points">
              <mxPoint x="125" y="740" />
              <mxPoint x="125" y="770" />
            </Array>
          </mxGeometry>
        </mxCell>
        <mxCell id="AbM89Q7QW5RMKGYb_Ogg-1" style="edgeStyle=orthogonalEdgeStyle;rounded=0;orthogonalLoop=1;jettySize=auto;html=1;exitX=0;exitY=0.75;exitDx=0;exitDy=0;entryX=0.5;entryY=0;entryDx=0;entryDy=0;endArrow=none;endFill=0;" parent="WIyWlLk6GJQsqaUBKTNV-1" source="ZGI1uP7I76oorq0Ib6Wb-39" target="AbM89Q7QW5RMKGYb_Ogg-0" edge="1">
          <mxGeometry relative="1" as="geometry">
            <Array as="points">
              <mxPoint x="275" y="740" />
            </Array>
          </mxGeometry>
        </mxCell>
        <mxCell id="ZGI1uP7I76oorq0Ib6Wb-39" value="" style="triangle;whiteSpace=wrap;html=1;rotation=-90;" parent="WIyWlLk6GJQsqaUBKTNV-1" vertex="1">
          <mxGeometry x="110" y="710" width="30" height="30" as="geometry" />
        </mxCell>
        <mxCell id="ZGI1uP7I76oorq0Ib6Wb-42" value="&lt;div style=&quot;text-align: left;&quot;&gt;&lt;span style=&quot;background-color: initial;&quot;&gt;&lt;b&gt;&lt;u&gt;idTarjeta&lt;/u&gt;&lt;/b&gt;&lt;/span&gt;&lt;/div&gt;cantidadCuotas" style="text;html=1;align=center;verticalAlign=middle;resizable=0;points=[];autosize=1;strokeColor=none;fillColor=none;" parent="WIyWlLk6GJQsqaUBKTNV-1" vertex="1">
          <mxGeometry x="-85" y="830" width="110" height="40" as="geometry" />
        </mxCell>
        <mxCell id="ZGI1uP7I76oorq0Ib6Wb-43" value="&lt;div style=&quot;&quot;&gt;&lt;b style=&quot;background-color: initial;&quot;&gt;&lt;u&gt;idFormaDePago&lt;/u&gt;&lt;/b&gt;&lt;/div&gt;&lt;div style=&quot;&quot;&gt;&lt;span style=&quot;background-color: initial;&quot;&gt;formaDePago&lt;/span&gt;&lt;/div&gt;&lt;div style=&quot;&quot;&gt;&lt;span style=&quot;background-color: initial;&quot;&gt;monto&lt;/span&gt;&lt;/div&gt;" style="text;html=1;align=left;verticalAlign=middle;resizable=0;points=[];autosize=1;strokeColor=none;fillColor=none;" parent="WIyWlLk6GJQsqaUBKTNV-1" vertex="1">
          <mxGeometry x="195" y="630" width="120" height="60" as="geometry" />
        </mxCell>
        <mxCell id="ZGI1uP7I76oorq0Ib6Wb-46" style="edgeStyle=orthogonalEdgeStyle;rounded=0;orthogonalLoop=1;jettySize=auto;html=1;exitX=0.5;exitY=1;exitDx=0;exitDy=0;entryX=0.5;entryY=0;entryDx=0;entryDy=0;endArrow=none;endFill=0;" parent="WIyWlLk6GJQsqaUBKTNV-1" source="ZGI1uP7I76oorq0Ib6Wb-45" target="ZGI1uP7I76oorq0Ib6Wb-32" edge="1">
          <mxGeometry relative="1" as="geometry" />
        </mxCell>
        <mxCell id="ZGI1uP7I76oorq0Ib6Wb-47" style="edgeStyle=orthogonalEdgeStyle;rounded=0;orthogonalLoop=1;jettySize=auto;html=1;entryX=0.5;entryY=1;entryDx=0;entryDy=0;endArrow=none;endFill=0;" parent="WIyWlLk6GJQsqaUBKTNV-1" source="ZGI1uP7I76oorq0Ib6Wb-45" target="JFm_ST4TKk0397qkzb1m-6" edge="1">
          <mxGeometry relative="1" as="geometry" />
        </mxCell>
        <mxCell id="ZGI1uP7I76oorq0Ib6Wb-45" value="tiene" style="rhombus;whiteSpace=wrap;html=1;" parent="WIyWlLk6GJQsqaUBKTNV-1" vertex="1">
          <mxGeometry x="85" y="520" width="80" height="80" as="geometry" />
        </mxCell>
        <mxCell id="ZGI1uP7I76oorq0Ib6Wb-48" value="1" style="text;html=1;align=center;verticalAlign=middle;resizable=0;points=[];autosize=1;strokeColor=none;fillColor=none;fontStyle=1" parent="WIyWlLk6GJQsqaUBKTNV-1" vertex="1">
          <mxGeometry x="125" y="600" width="30" height="30" as="geometry" />
        </mxCell>
        <mxCell id="ZGI1uP7I76oorq0Ib6Wb-49" value="N" style="text;html=1;align=center;verticalAlign=middle;resizable=0;points=[];autosize=1;strokeColor=none;fillColor=none;fontStyle=1" parent="WIyWlLk6GJQsqaUBKTNV-1" vertex="1">
          <mxGeometry x="265" y="460" width="30" height="30" as="geometry" />
        </mxCell>
        <mxCell id="FPQpx2_Bj9Fgrcibr409-9" value="1" style="text;html=1;align=center;verticalAlign=middle;resizable=0;points=[];autosize=1;strokeColor=none;fillColor=none;fontStyle=1" parent="WIyWlLk6GJQsqaUBKTNV-1" vertex="1">
          <mxGeometry x="200" y="48" width="30" height="30" as="geometry" />
        </mxCell>
        <mxCell id="FPQpx2_Bj9Fgrcibr409-13" style="edgeStyle=orthogonalEdgeStyle;rounded=0;orthogonalLoop=1;jettySize=auto;html=1;exitX=0.5;exitY=1;exitDx=0;exitDy=0;entryX=0.5;entryY=0;entryDx=0;entryDy=0;endArrow=none;endFill=0;" parent="WIyWlLk6GJQsqaUBKTNV-1" source="FPQpx2_Bj9Fgrcibr409-15" target="FPQpx2_Bj9Fgrcibr409-14" edge="1">
          <mxGeometry relative="1" as="geometry" />
        </mxCell>
        <mxCell id="FPQpx2_Bj9Fgrcibr409-14" value="PagoPendiente" style="rounded=0;whiteSpace=wrap;html=1;" parent="WIyWlLk6GJQsqaUBKTNV-1" vertex="1">
          <mxGeometry x="400" y="600" width="120" height="60" as="geometry" />
        </mxCell>
        <mxCell id="FPQpx2_Bj9Fgrcibr409-15" value="tiene" style="rhombus;whiteSpace=wrap;html=1;" parent="WIyWlLk6GJQsqaUBKTNV-1" vertex="1">
          <mxGeometry x="420" y="490" width="80" height="80" as="geometry" />
        </mxCell>
        <mxCell id="FPQpx2_Bj9Fgrcibr409-16" value="N" style="text;html=1;align=center;verticalAlign=middle;resizable=0;points=[];autosize=1;strokeColor=none;fillColor=none;fontStyle=1" parent="WIyWlLk6GJQsqaUBKTNV-1" vertex="1">
          <mxGeometry x="430" y="570" width="30" height="30" as="geometry" />
        </mxCell>
        <mxCell id="FPQpx2_Bj9Fgrcibr409-17" value="Pago" style="rounded=0;whiteSpace=wrap;html=1;" parent="WIyWlLk6GJQsqaUBKTNV-1" vertex="1">
          <mxGeometry x="-30" y="230" width="120" height="60" as="geometry" />
        </mxCell>
        <mxCell id="FPQpx2_Bj9Fgrcibr409-20" value="" style="edgeStyle=orthogonalEdgeStyle;rounded=0;orthogonalLoop=1;jettySize=auto;html=1;exitX=0;exitY=0.75;exitDx=0;exitDy=0;entryX=1;entryY=0.5;entryDx=0;entryDy=0;endArrow=none;endFill=0;" parent="WIyWlLk6GJQsqaUBKTNV-1" source="JFm_ST4TKk0397qkzb1m-6" target="FPQpx2_Bj9Fgrcibr409-19" edge="1">
          <mxGeometry relative="1" as="geometry">
            <mxPoint x="355" y="445" as="sourcePoint" />
            <mxPoint x="560" y="620" as="targetPoint" />
            <Array as="points">
              <mxPoint x="235" y="430" />
            </Array>
          </mxGeometry>
        </mxCell>
        <mxCell id="FPQpx2_Bj9Fgrcibr409-19" value="tiene" style="rhombus;whiteSpace=wrap;html=1;" parent="WIyWlLk6GJQsqaUBKTNV-1" vertex="1">
          <mxGeometry x="-10" y="390" width="80" height="80" as="geometry" />
        </mxCell>
        <mxCell id="FPQpx2_Bj9Fgrcibr409-25" value="1" style="text;html=1;align=center;verticalAlign=middle;resizable=0;points=[];autosize=1;strokeColor=none;fillColor=none;fontStyle=1" parent="WIyWlLk6GJQsqaUBKTNV-1" vertex="1">
          <mxGeometry x="205" y="430" width="30" height="30" as="geometry" />
        </mxCell>
        <mxCell id="FPQpx2_Bj9Fgrcibr409-26" value="N" style="text;html=1;align=center;verticalAlign=middle;resizable=0;points=[];autosize=1;strokeColor=none;fillColor=none;fontStyle=1" parent="WIyWlLk6GJQsqaUBKTNV-1" vertex="1">
          <mxGeometry y="290" width="30" height="30" as="geometry" />
        </mxCell>
        <mxCell id="FPQpx2_Bj9Fgrcibr409-34" value="&lt;u&gt;idPago&lt;/u&gt;&lt;div&gt;&lt;span style=&quot;font-weight: normal;&quot;&gt;idOrden&lt;/span&gt;&lt;br style=&quot;border-color: var(--border-color);&quot;&gt;&lt;span style=&quot;font-weight: 400;&quot;&gt;idUsuario&lt;/span&gt;&lt;br style=&quot;border-color: var(--border-color); font-weight: 400;&quot;&gt;&lt;span style=&quot;font-weight: 400;&quot;&gt;fecha&lt;br&gt;&lt;/span&gt;&lt;span style=&quot;font-weight: normal;&quot;&gt;tipo&lt;/span&gt;&lt;br style=&quot;border-color: var(--border-color); font-weight: 400;&quot;&gt;&lt;span style=&quot;font-weight: 400;&quot;&gt;monto&lt;/span&gt;&lt;br&gt;&lt;div style=&quot;font-weight: normal;&quot;&gt;&lt;/div&gt;&lt;/div&gt;" style="text;html=1;strokeColor=none;fillColor=none;align=left;verticalAlign=middle;whiteSpace=wrap;rounded=0;fontStyle=1" parent="WIyWlLk6GJQsqaUBKTNV-1" vertex="1">
          <mxGeometry x="97.5" y="222.5" width="60" height="80" as="geometry" />
        </mxCell>
        <mxCell id="FPQpx2_Bj9Fgrcibr409-35" value="1" style="text;html=1;align=center;verticalAlign=middle;resizable=0;points=[];autosize=1;strokeColor=none;fillColor=none;fontStyle=1" parent="WIyWlLk6GJQsqaUBKTNV-1" vertex="1">
          <mxGeometry x="355" y="450" width="30" height="30" as="geometry" />
        </mxCell>
        <mxCell id="FPQpx2_Bj9Fgrcibr409-36" value="&lt;u&gt;idPagoPendiente&lt;/u&gt;&lt;br style=&quot;border-color: var(--border-color); font-weight: 400;&quot;&gt;&lt;span style=&quot;font-weight: 400;&quot;&gt;idOrden&lt;/span&gt;&lt;br style=&quot;border-color: var(--border-color); font-weight: 400;&quot;&gt;&lt;span style=&quot;font-weight: 400;&quot;&gt;fechaLimite&lt;/span&gt;&lt;br style=&quot;border-color: var(--border-color); font-weight: 400;&quot;&gt;&lt;span style=&quot;font-weight: 400;&quot;&gt;monto&lt;/span&gt;&lt;br&gt;&lt;div style=&quot;font-weight: normal;&quot;&gt;&lt;/div&gt;" style="text;html=1;strokeColor=none;fillColor=none;align=left;verticalAlign=middle;whiteSpace=wrap;rounded=0;fontStyle=1" parent="WIyWlLk6GJQsqaUBKTNV-1" vertex="1">
          <mxGeometry x="405" y="655" width="110" height="80" as="geometry" />
        </mxCell>
        <mxCell id="FPQpx2_Bj9Fgrcibr409-37" value="&lt;div style=&quot;text-align: left;&quot;&gt;&lt;span style=&quot;background-color: initial;&quot;&gt;&lt;b&gt;&lt;u&gt;idEfectivo&lt;/u&gt;&lt;/b&gt;&lt;/span&gt;&lt;/div&gt;" style="text;html=1;align=center;verticalAlign=middle;resizable=0;points=[];autosize=1;strokeColor=none;fillColor=none;" parent="WIyWlLk6GJQsqaUBKTNV-1" vertex="1">
          <mxGeometry x="67.5" y="830" width="80" height="30" as="geometry" />
        </mxCell>
        <mxCell id="AbM89Q7QW5RMKGYb_Ogg-0" value="Transferencia" style="rounded=0;whiteSpace=wrap;html=1;" parent="WIyWlLk6GJQsqaUBKTNV-1" vertex="1">
          <mxGeometry x="215" y="770" width="120" height="60" as="geometry" />
        </mxCell>
        <mxCell id="AbM89Q7QW5RMKGYb_Ogg-2" value="&lt;div style=&quot;text-align: left;&quot;&gt;&lt;span style=&quot;background-color: initial;&quot;&gt;&lt;b&gt;&lt;u&gt;idTransferencia&lt;/u&gt;&lt;/b&gt;&lt;/span&gt;&lt;/div&gt;" style="text;html=1;align=center;verticalAlign=middle;resizable=0;points=[];autosize=1;strokeColor=none;fillColor=none;" parent="WIyWlLk6GJQsqaUBKTNV-1" vertex="1">
          <mxGeometry x="215" y="830" width="110" height="30" as="geometry" />
        </mxCell>
        <mxCell id="AbM89Q7QW5RMKGYb_Ogg-4" value="" style="edgeStyle=orthogonalEdgeStyle;rounded=0;orthogonalLoop=1;jettySize=auto;html=1;exitX=0.5;exitY=0;exitDx=0;exitDy=0;entryX=0.5;entryY=1;entryDx=0;entryDy=0;endArrow=none;endFill=0;" parent="WIyWlLk6GJQsqaUBKTNV-1" source="FPQpx2_Bj9Fgrcibr409-17" target="AbM89Q7QW5RMKGYb_Ogg-5" edge="1">
          <mxGeometry relative="1" as="geometry">
            <mxPoint x="-70" y="260" as="sourcePoint" />
            <mxPoint x="-30" y="-130" as="targetPoint" />
          </mxGeometry>
        </mxCell>
        <mxCell id="AbM89Q7QW5RMKGYb_Ogg-13" style="edgeStyle=orthogonalEdgeStyle;rounded=0;orthogonalLoop=1;jettySize=auto;html=1;exitX=1;exitY=0.5;exitDx=0;exitDy=0;entryX=0;entryY=0.5;entryDx=0;entryDy=0;endArrow=none;endFill=0;" parent="WIyWlLk6GJQsqaUBKTNV-1" source="AbM89Q7QW5RMKGYb_Ogg-5" target="JFm_ST4TKk0397qkzb1m-5" edge="1">
          <mxGeometry relative="1" as="geometry" />
        </mxCell>
        <mxCell id="AbM89Q7QW5RMKGYb_Ogg-5" value="HistorialDePago" style="rhombus;whiteSpace=wrap;html=1;" parent="WIyWlLk6GJQsqaUBKTNV-1" vertex="1">
          <mxGeometry x="-25" y="27" width="110" height="100" as="geometry" />
        </mxCell>
        <mxCell id="AbM89Q7QW5RMKGYb_Ogg-7" value="N" style="text;html=1;align=center;verticalAlign=middle;resizable=0;points=[];autosize=1;strokeColor=none;fillColor=none;fontStyle=1" parent="WIyWlLk6GJQsqaUBKTNV-1" vertex="1">
          <mxGeometry y="200" width="30" height="30" as="geometry" />
        </mxCell>
        <mxCell id="kZufIljrzdc1vVcMqMFh-0" value="Imagen" style="rounded=0;whiteSpace=wrap;html=1;" parent="WIyWlLk6GJQsqaUBKTNV-1" vertex="1">
          <mxGeometry x="1100" y="130" width="120" height="60" as="geometry" />
        </mxCell>
        <mxCell id="kZufIljrzdc1vVcMqMFh-3" value="" style="edgeStyle=orthogonalEdgeStyle;rounded=0;orthogonalLoop=1;jettySize=auto;html=1;entryX=0;entryY=0.5;entryDx=0;entryDy=0;endArrow=none;endFill=0;" parent="WIyWlLk6GJQsqaUBKTNV-1" target="kZufIljrzdc1vVcMqMFh-2" edge="1">
          <mxGeometry relative="1" as="geometry">
            <mxPoint x="1200" y="138" as="targetPoint" />
            <mxPoint x="830" y="110" as="sourcePoint" />
            <Array as="points">
              <mxPoint x="830" y="108" />
              <mxPoint x="830" y="160" />
            </Array>
          </mxGeometry>
        </mxCell>
        <mxCell id="kZufIljrzdc1vVcMqMFh-2" value="tiene" style="rhombus;whiteSpace=wrap;html=1;" parent="WIyWlLk6GJQsqaUBKTNV-1" vertex="1">
          <mxGeometry x="920" y="120" width="80" height="80" as="geometry" />
        </mxCell>
        <mxCell id="kZufIljrzdc1vVcMqMFh-4" value="1" style="text;html=1;align=center;verticalAlign=middle;resizable=0;points=[];autosize=1;strokeColor=none;fillColor=none;fontStyle=1" parent="WIyWlLk6GJQsqaUBKTNV-1" vertex="1">
          <mxGeometry x="827" y="108" width="30" height="30" as="geometry" />
        </mxCell>
        <mxCell id="kZufIljrzdc1vVcMqMFh-5" value="N" style="text;html=1;align=center;verticalAlign=middle;resizable=0;points=[];autosize=1;strokeColor=none;fillColor=none;fontStyle=1" parent="WIyWlLk6GJQsqaUBKTNV-1" vertex="1">
          <mxGeometry x="1070" y="130" width="30" height="30" as="geometry" />
        </mxCell>
        <mxCell id="kZufIljrzdc1vVcMqMFh-6" value="&lt;b style=&quot;border-color: var(--border-color); text-align: center;&quot;&gt;&lt;u style=&quot;border-color: var(--border-color);&quot;&gt;&lt;font style=&quot;border-color: var(--border-color);&quot;&gt;idImagen&lt;br&gt;&lt;/font&gt;&lt;/u&gt;&lt;/b&gt;&lt;span style=&quot;font-weight: normal;&quot;&gt;idProducto&lt;br&gt;titulo&lt;br&gt;&lt;/span&gt;&lt;span style=&quot;font-weight: normal;&quot;&gt;URLImagen&lt;/span&gt;" style="text;html=1;strokeColor=none;fillColor=none;align=left;verticalAlign=middle;whiteSpace=wrap;rounded=0;fontStyle=1" parent="WIyWlLk6GJQsqaUBKTNV-1" vertex="1">
          <mxGeometry x="1230" y="126" width="70" height="68" as="geometry" />
        </mxCell>
        <mxCell id="kZufIljrzdc1vVcMqMFh-8" value="Marca" style="rounded=0;whiteSpace=wrap;html=1;" parent="WIyWlLk6GJQsqaUBKTNV-1" vertex="1">
          <mxGeometry x="1290" y="17.5" width="120" height="60" as="geometry" />
        </mxCell>
        <mxCell id="kZufIljrzdc1vVcMqMFh-9" value="N" style="text;html=1;align=center;verticalAlign=middle;resizable=0;points=[];autosize=1;strokeColor=none;fillColor=none;fontStyle=1" parent="WIyWlLk6GJQsqaUBKTNV-1" vertex="1">
          <mxGeometry x="1260" y="18" width="30" height="30" as="geometry" />
        </mxCell>
        <mxCell id="kZufIljrzdc1vVcMqMFh-10" value="&lt;b style=&quot;border-color: var(--border-color); text-align: center;&quot;&gt;&lt;u style=&quot;border-color: var(--border-color);&quot;&gt;&lt;font style=&quot;border-color: var(--border-color);&quot;&gt;idMarca&lt;br&gt;&lt;/font&gt;&lt;/u&gt;&lt;/b&gt;&lt;span style=&quot;font-weight: normal;&quot;&gt;nombre&lt;br&gt;&lt;/span&gt;" style="text;html=1;strokeColor=none;fillColor=none;align=left;verticalAlign=middle;whiteSpace=wrap;rounded=0;fontStyle=1" parent="WIyWlLk6GJQsqaUBKTNV-1" vertex="1">
          <mxGeometry x="1420" y="17.5" width="60" height="38" as="geometry" />
        </mxCell>
        <mxCell id="kZufIljrzdc1vVcMqMFh-13" style="edgeStyle=orthogonalEdgeStyle;rounded=0;orthogonalLoop=1;jettySize=auto;html=1;exitX=1;exitY=0.5;exitDx=0;exitDy=0;entryX=0;entryY=0.5;entryDx=0;entryDy=0;endArrow=none;endFill=0;" parent="WIyWlLk6GJQsqaUBKTNV-1" source="kZufIljrzdc1vVcMqMFh-11" target="kZufIljrzdc1vVcMqMFh-8" edge="1">
          <mxGeometry relative="1" as="geometry" />
        </mxCell>
        <mxCell id="kZufIljrzdc1vVcMqMFh-11" value="ProductoMarca" style="rhombus;whiteSpace=wrap;html=1;" parent="WIyWlLk6GJQsqaUBKTNV-1" vertex="1">
          <mxGeometry x="1120" width="100" height="95" as="geometry" />
        </mxCell>
        <mxCell id="kZufIljrzdc1vVcMqMFh-14" value="N" style="text;html=1;align=center;verticalAlign=middle;resizable=0;points=[];autosize=1;strokeColor=none;fillColor=none;fontStyle=1" parent="WIyWlLk6GJQsqaUBKTNV-1" vertex="1">
          <mxGeometry x="837" y="68" width="30" height="30" as="geometry" />
        </mxCell>
        <mxCell id="kZufIljrzdc1vVcMqMFh-15" value="&lt;div style=&quot;&quot;&gt;&lt;div style=&quot;border-color: var(--border-color);&quot;&gt;&lt;b style=&quot;background-color: initial; border-color: var(--border-color);&quot;&gt;&lt;u style=&quot;border-color: var(--border-color);&quot;&gt;&lt;font style=&quot;border-color: var(--border-color);&quot;&gt;idProducto&lt;/font&gt;&lt;/u&gt;&lt;/b&gt;&lt;br&gt;&lt;/div&gt;&lt;div style=&quot;border-color: var(--border-color);&quot;&gt;&lt;b style=&quot;background-color: initial; border-color: var(--border-color);&quot;&gt;&lt;u style=&quot;border-color: var(--border-color);&quot;&gt;&lt;font style=&quot;border-color: var(--border-color);&quot;&gt;&lt;b style=&quot;border-color: var(--border-color);&quot;&gt;&lt;u style=&quot;border-color: var(--border-color);&quot;&gt;idMarca&lt;/u&gt;&lt;/b&gt;&lt;br&gt;&lt;/font&gt;&lt;/u&gt;&lt;/b&gt;&lt;/div&gt;&lt;/div&gt;" style="text;html=1;strokeColor=none;fillColor=none;align=left;verticalAlign=middle;whiteSpace=wrap;rounded=0;" parent="WIyWlLk6GJQsqaUBKTNV-1" vertex="1">
          <mxGeometry x="1191" y="-16" width="50" height="20" as="geometry" />
        </mxCell>
        <mxCell id="kZufIljrzdc1vVcMqMFh-16" value="&lt;div style=&quot;text-align: left;&quot;&gt;&lt;span style=&quot;background-color: initial;&quot;&gt;&lt;b&gt;&lt;u&gt;idCalzado&lt;/u&gt;&lt;/b&gt;&lt;/span&gt;&lt;/div&gt;" style="text;html=1;align=center;verticalAlign=middle;resizable=0;points=[];autosize=1;strokeColor=none;fillColor=none;" parent="WIyWlLk6GJQsqaUBKTNV-1" vertex="1">
          <mxGeometry x="555" y="450" width="80" height="30" as="geometry" />
        </mxCell>
        <mxCell id="kZufIljrzdc1vVcMqMFh-18" value="&lt;div style=&quot;text-align: left;&quot;&gt;&lt;span style=&quot;background-color: initial;&quot;&gt;&lt;b&gt;&lt;u&gt;idVestimenta&lt;/u&gt;&lt;/b&gt;&lt;/span&gt;&lt;/div&gt;" style="text;html=1;align=center;verticalAlign=middle;resizable=0;points=[];autosize=1;strokeColor=none;fillColor=none;" parent="WIyWlLk6GJQsqaUBKTNV-1" vertex="1">
          <mxGeometry x="715" y="450" width="100" height="30" as="geometry" />
        </mxCell>
        <mxCell id="kZufIljrzdc1vVcMqMFh-19" value="&lt;div style=&quot;text-align: left;&quot;&gt;&lt;span style=&quot;background-color: initial;&quot;&gt;&lt;b&gt;&lt;u&gt;idAccesorio&lt;/u&gt;&lt;/b&gt;&lt;/span&gt;&lt;/div&gt;" style="text;html=1;align=center;verticalAlign=middle;resizable=0;points=[];autosize=1;strokeColor=none;fillColor=none;" parent="WIyWlLk6GJQsqaUBKTNV-1" vertex="1">
          <mxGeometry x="877" y="450" width="90" height="30" as="geometry" />
        </mxCell>
        <mxCell id="FAMIA-v1UvQOhVON40aN-6" style="edgeStyle=orthogonalEdgeStyle;rounded=0;orthogonalLoop=1;jettySize=auto;html=1;exitX=0;exitY=0.5;exitDx=0;exitDy=0;entryX=0.75;entryY=1;entryDx=0;entryDy=0;endArrow=none;endFill=0;" parent="WIyWlLk6GJQsqaUBKTNV-1" source="1GpDqGk2lMohljZ--whB-2" target="JFm_ST4TKk0397qkzb1m-3" edge="1">
          <mxGeometry relative="1" as="geometry" />
        </mxCell>
        <mxCell id="FAMIA-v1UvQOhVON40aN-7" style="edgeStyle=orthogonalEdgeStyle;rounded=0;orthogonalLoop=1;jettySize=auto;html=1;entryX=0;entryY=0.5;entryDx=0;entryDy=0;endArrow=none;endFill=0;" parent="WIyWlLk6GJQsqaUBKTNV-1" source="1GpDqGk2lMohljZ--whB-2" target="FAMIA-v1UvQOhVON40aN-2" edge="1">
          <mxGeometry relative="1" as="geometry" />
        </mxCell>
        <mxCell id="1GpDqGk2lMohljZ--whB-2" value="tiene" style="rhombus;whiteSpace=wrap;html=1;" parent="WIyWlLk6GJQsqaUBKTNV-1" vertex="1">
          <mxGeometry x="897.5" y="240" width="80" height="80" as="geometry" />
        </mxCell>
        <mxCell id="1GpDqGk2lMohljZ--whB-7" value="1" style="text;html=1;align=center;verticalAlign=middle;resizable=0;points=[];autosize=1;strokeColor=none;fillColor=none;fontStyle=1" parent="WIyWlLk6GJQsqaUBKTNV-1" vertex="1">
          <mxGeometry x="1020" y="250" width="30" height="30" as="geometry" />
        </mxCell>
        <mxCell id="1GpDqGk2lMohljZ--whB-11" value="&lt;u&gt;idGrupo&lt;/u&gt;&lt;div&gt;&lt;u style=&quot;&quot;&gt;idProducto&lt;/u&gt;&lt;br&gt;&lt;/div&gt;" style="text;html=1;strokeColor=none;fillColor=none;align=left;verticalAlign=middle;whiteSpace=wrap;rounded=0;fontStyle=1" parent="WIyWlLk6GJQsqaUBKTNV-1" vertex="1">
          <mxGeometry x="1181" y="250" width="70" height="30" as="geometry" />
        </mxCell>
        <mxCell id="pIQQlFEjuDW5z5sKHTUd-0" style="edgeStyle=orthogonalEdgeStyle;rounded=0;orthogonalLoop=1;jettySize=auto;html=1;entryX=0;entryY=0.5;entryDx=0;entryDy=0;endArrow=none;endFill=0;" parent="WIyWlLk6GJQsqaUBKTNV-1" source="Eh1zNCX-W6txuUn7iYpB-6" target="JFm_ST4TKk0397qkzb1m-3" edge="1">
          <mxGeometry relative="1" as="geometry">
            <mxPoint x="540" y="-87.5" as="targetPoint" />
          </mxGeometry>
        </mxCell>
        <mxCell id="Eh1zNCX-W6txuUn7iYpB-6" value="Carrito" style="rhombus;whiteSpace=wrap;html=1;" parent="WIyWlLk6GJQsqaUBKTNV-1" vertex="1">
          <mxGeometry x="490" y="30.25" width="100" height="93.5" as="geometry" />
        </mxCell>
        <mxCell id="Eh1zNCX-W6txuUn7iYpB-15" value="1" style="text;html=1;align=center;verticalAlign=middle;resizable=0;points=[];autosize=1;strokeColor=none;fillColor=none;fontStyle=1" parent="WIyWlLk6GJQsqaUBKTNV-1" vertex="1">
          <mxGeometry x="355" y="385" width="30" height="30" as="geometry" />
        </mxCell>
        <mxCell id="GvYPYGrT6rdpQt4Xljrj-11" value="1" style="text;html=1;align=center;verticalAlign=middle;resizable=0;points=[];autosize=1;strokeColor=none;fillColor=none;fontStyle=1" parent="WIyWlLk6GJQsqaUBKTNV-1" vertex="1">
          <mxGeometry x="750" y="107.5" width="30" height="30" as="geometry" />
        </mxCell>
        <mxCell id="q_Puny2AuOkgBqoYq8uL-6" style="edgeStyle=orthogonalEdgeStyle;rounded=0;orthogonalLoop=1;jettySize=auto;html=1;entryX=0.167;entryY=1.003;entryDx=0;entryDy=0;endArrow=none;endFill=0;entryPerimeter=0;" parent="WIyWlLk6GJQsqaUBKTNV-1" source="q_Puny2AuOkgBqoYq8uL-10" target="JFm_ST4TKk0397qkzb1m-3" edge="1">
          <mxGeometry relative="1" as="geometry" />
        </mxCell>
        <mxCell id="q_Puny2AuOkgBqoYq8uL-1" value="OrdenDetalle" style="whiteSpace=wrap;html=1;" parent="WIyWlLk6GJQsqaUBKTNV-1" vertex="1">
          <mxGeometry x="490" y="197.5" width="120" height="60" as="geometry" />
        </mxCell>
        <mxCell id="q_Puny2AuOkgBqoYq8uL-3" style="edgeStyle=orthogonalEdgeStyle;rounded=0;orthogonalLoop=1;jettySize=auto;html=1;exitX=0.5;exitY=0;exitDx=0;exitDy=0;entryX=0;entryY=0.5;entryDx=0;entryDy=0;endArrow=none;endFill=0;" parent="WIyWlLk6GJQsqaUBKTNV-1" source="q_Puny2AuOkgBqoYq8uL-2" target="q_Puny2AuOkgBqoYq8uL-1" edge="1">
          <mxGeometry relative="1" as="geometry" />
        </mxCell>
        <mxCell id="q_Puny2AuOkgBqoYq8uL-2" value="tiene" style="rhombus;whiteSpace=wrap;html=1;" parent="WIyWlLk6GJQsqaUBKTNV-1" vertex="1">
          <mxGeometry x="420" y="297.5" width="80" height="80" as="geometry" />
        </mxCell>
        <mxCell id="q_Puny2AuOkgBqoYq8uL-4" value="N" style="text;html=1;align=center;verticalAlign=middle;resizable=0;points=[];autosize=1;strokeColor=none;fillColor=none;fontStyle=1" parent="WIyWlLk6GJQsqaUBKTNV-1" vertex="1">
          <mxGeometry x="460" y="197.5" width="30" height="30" as="geometry" />
        </mxCell>
        <mxCell id="q_Puny2AuOkgBqoYq8uL-5" value="&lt;u&gt;idOrden&lt;br&gt;&lt;span style=&quot;border-color: var(--border-color);&quot;&gt;&lt;span style=&quot;border-color: var(--border-color);&quot;&gt;idProducto&lt;/span&gt;&lt;/span&gt;&lt;/u&gt;&lt;font style=&quot;border-color: var(--border-color);&quot;&gt;&lt;br style=&quot;border-color: var(--border-color);&quot;&gt;&lt;/font&gt;&lt;span style=&quot;font-weight: 400; background-color: initial;&quot;&gt;cantidad&lt;/span&gt;&lt;div&gt;&lt;span style=&quot;font-weight: 400; background-color: initial;&quot;&gt;precio&lt;/span&gt;&lt;/div&gt;" style="text;html=1;strokeColor=none;fillColor=none;align=left;verticalAlign=middle;whiteSpace=wrap;rounded=0;fontStyle=1" parent="WIyWlLk6GJQsqaUBKTNV-1" vertex="1">
          <mxGeometry x="530" y="267.5" width="80" height="62.5" as="geometry" />
        </mxCell>
        <mxCell id="q_Puny2AuOkgBqoYq8uL-9" value="" style="edgeStyle=orthogonalEdgeStyle;rounded=0;orthogonalLoop=1;jettySize=auto;html=1;entryX=0;entryY=0.5;entryDx=0;entryDy=0;endArrow=none;endFill=0;" parent="WIyWlLk6GJQsqaUBKTNV-1" source="q_Puny2AuOkgBqoYq8uL-1" target="q_Puny2AuOkgBqoYq8uL-10" edge="1">
          <mxGeometry relative="1" as="geometry">
            <mxPoint x="610" y="228" as="sourcePoint" />
            <mxPoint x="750" y="108" as="targetPoint" />
          </mxGeometry>
        </mxCell>
        <mxCell id="q_Puny2AuOkgBqoYq8uL-10" value="de" style="rhombus;whiteSpace=wrap;html=1;" parent="WIyWlLk6GJQsqaUBKTNV-1" vertex="1">
          <mxGeometry x="670" y="187.5" width="80" height="80" as="geometry" />
        </mxCell>
        <mxCell id="q_Puny2AuOkgBqoYq8uL-11" value="N" style="text;html=1;align=center;verticalAlign=middle;resizable=0;points=[];autosize=1;strokeColor=none;fillColor=none;fontStyle=1" parent="WIyWlLk6GJQsqaUBKTNV-1" vertex="1">
          <mxGeometry x="610" y="197.5" width="30" height="30" as="geometry" />
        </mxCell>
        <mxCell id="q_Puny2AuOkgBqoYq8uL-12" value="1" style="text;html=1;align=center;verticalAlign=middle;resizable=0;points=[];autosize=1;strokeColor=none;fillColor=none;fontStyle=1" parent="WIyWlLk6GJQsqaUBKTNV-1" vertex="1">
          <mxGeometry x="710" y="107.5" width="30" height="30" as="geometry" />
        </mxCell>
        <mxCell id="q_Puny2AuOkgBqoYq8uL-13" value="Direccion" style="rounded=0;whiteSpace=wrap;html=1;" parent="WIyWlLk6GJQsqaUBKTNV-1" vertex="1">
          <mxGeometry x="-30" y="-160" width="120" height="60" as="geometry" />
        </mxCell>
        <mxCell id="q_Puny2AuOkgBqoYq8uL-16" style="edgeStyle=orthogonalEdgeStyle;rounded=0;orthogonalLoop=1;jettySize=auto;html=1;entryX=0.5;entryY=1;entryDx=0;entryDy=0;endArrow=none;endFill=0;exitX=0;exitY=0.5;exitDx=0;exitDy=0;" parent="WIyWlLk6GJQsqaUBKTNV-1" source="q_Puny2AuOkgBqoYq8uL-14" target="q_Puny2AuOkgBqoYq8uL-13" edge="1">
          <mxGeometry relative="1" as="geometry" />
        </mxCell>
        <mxCell id="q_Puny2AuOkgBqoYq8uL-14" value="tiene" style="rhombus;whiteSpace=wrap;html=1;" parent="WIyWlLk6GJQsqaUBKTNV-1" vertex="1">
          <mxGeometry x="92.5" y="-62.5" width="90" height="82" as="geometry" />
        </mxCell>
        <mxCell id="q_Puny2AuOkgBqoYq8uL-18" value="N" style="text;html=1;align=center;verticalAlign=middle;resizable=0;points=[];autosize=1;strokeColor=none;fillColor=none;fontStyle=1" parent="WIyWlLk6GJQsqaUBKTNV-1" vertex="1">
          <mxGeometry x="30" y="-100" width="30" height="30" as="geometry" />
        </mxCell>
        <mxCell id="q_Puny2AuOkgBqoYq8uL-19" value="1" style="text;html=1;align=center;verticalAlign=middle;resizable=0;points=[];autosize=1;strokeColor=none;fillColor=none;fontStyle=1" parent="WIyWlLk6GJQsqaUBKTNV-1" vertex="1">
          <mxGeometry x="222.5" y="17" width="30" height="30" as="geometry" />
        </mxCell>
        <mxCell id="q_Puny2AuOkgBqoYq8uL-20" value="&lt;u&gt;idDireccion&lt;/u&gt;&lt;div&gt;&lt;u&gt;idUsuario&lt;br&gt;&lt;/u&gt;&lt;div&gt;&lt;span style=&quot;font-weight: normal;&quot;&gt;calle&lt;/span&gt;&lt;/div&gt;&lt;div&gt;&lt;span style=&quot;font-weight: 400;&quot;&gt;departamento&lt;/span&gt;&lt;/div&gt;&lt;div&gt;&lt;span style=&quot;font-weight: normal;&quot;&gt;ciudad&lt;/span&gt;&lt;/div&gt;&lt;div&gt;&lt;span style=&quot;font-weight: normal;&quot;&gt;numeroDeCasa&lt;/span&gt;&lt;/div&gt;&lt;div&gt;&lt;span style=&quot;font-weight: normal;&quot;&gt;numeroDeApartamento&lt;/span&gt;&lt;/div&gt;&lt;div&gt;&lt;span style=&quot;font-weight: normal;&quot;&gt;referencia&lt;/span&gt;&lt;/div&gt;&lt;div&gt;&lt;span style=&quot;font-weight: normal;&quot;&gt;codigoPostal&lt;/span&gt;&lt;/div&gt;&lt;/div&gt;" style="text;html=1;strokeColor=none;fillColor=none;align=left;verticalAlign=middle;whiteSpace=wrap;rounded=0;fontStyle=1" parent="WIyWlLk6GJQsqaUBKTNV-1" vertex="1">
          <mxGeometry x="-30" y="-296.87" width="120" height="133.75" as="geometry" />
        </mxCell>
        <mxCell id="FAMIA-v1UvQOhVON40aN-2" value="Grupo" style="rounded=0;whiteSpace=wrap;html=1;" parent="WIyWlLk6GJQsqaUBKTNV-1" vertex="1">
          <mxGeometry x="1050" y="250" width="120" height="60" as="geometry" />
        </mxCell>
        <mxCell id="FAMIA-v1UvQOhVON40aN-10" value="N" style="text;html=1;align=center;verticalAlign=middle;resizable=0;points=[];autosize=1;strokeColor=none;fillColor=none;fontStyle=1" parent="WIyWlLk6GJQsqaUBKTNV-1" vertex="1">
          <mxGeometry x="780" y="108" width="30" height="30" as="geometry" />
        </mxCell>
        <mxCell id="pmIC2eHcT4sqSz_BK4ai-0" value="Envio" style="rounded=0;whiteSpace=wrap;html=1;" parent="WIyWlLk6GJQsqaUBKTNV-1" vertex="1">
          <mxGeometry x="-200" y="230" width="120" height="60" as="geometry" />
        </mxCell>
        <mxCell id="pmIC2eHcT4sqSz_BK4ai-5" style="edgeStyle=orthogonalEdgeStyle;rounded=0;orthogonalLoop=1;jettySize=auto;html=1;exitX=0.5;exitY=0;exitDx=0;exitDy=0;entryX=0.5;entryY=1;entryDx=0;entryDy=0;endSize=6;endArrow=none;endFill=0;" parent="WIyWlLk6GJQsqaUBKTNV-1" source="pmIC2eHcT4sqSz_BK4ai-1" target="pmIC2eHcT4sqSz_BK4ai-0" edge="1">
          <mxGeometry relative="1" as="geometry">
            <Array as="points">
              <mxPoint x="-140" y="460" />
              <mxPoint x="-140" y="290" />
            </Array>
          </mxGeometry>
        </mxCell>
        <mxCell id="pmIC2eHcT4sqSz_BK4ai-6" style="edgeStyle=orthogonalEdgeStyle;rounded=0;orthogonalLoop=1;jettySize=auto;html=1;entryX=0.25;entryY=1;entryDx=0;entryDy=0;endArrow=none;endFill=0;" parent="WIyWlLk6GJQsqaUBKTNV-1" source="pmIC2eHcT4sqSz_BK4ai-1" target="JFm_ST4TKk0397qkzb1m-6" edge="1">
          <mxGeometry relative="1" as="geometry" />
        </mxCell>
        <mxCell id="pmIC2eHcT4sqSz_BK4ai-1" value="tiene" style="rhombus;whiteSpace=wrap;html=1;" parent="WIyWlLk6GJQsqaUBKTNV-1" vertex="1">
          <mxGeometry x="-180" y="460" width="80" height="80" as="geometry" />
        </mxCell>
        <mxCell id="pmIC2eHcT4sqSz_BK4ai-3" style="edgeStyle=orthogonalEdgeStyle;rounded=0;orthogonalLoop=1;jettySize=auto;html=1;entryX=0;entryY=0.5;entryDx=0;entryDy=0;exitX=0.5;exitY=0;exitDx=0;exitDy=0;endArrow=none;endFill=0;" parent="WIyWlLk6GJQsqaUBKTNV-1" source="pmIC2eHcT4sqSz_BK4ai-2" target="q_Puny2AuOkgBqoYq8uL-13" edge="1">
          <mxGeometry relative="1" as="geometry" />
        </mxCell>
        <mxCell id="pmIC2eHcT4sqSz_BK4ai-4" style="edgeStyle=orthogonalEdgeStyle;rounded=0;orthogonalLoop=1;jettySize=auto;html=1;exitX=0.5;exitY=1;exitDx=0;exitDy=0;endArrow=none;endFill=0;" parent="WIyWlLk6GJQsqaUBKTNV-1" source="pmIC2eHcT4sqSz_BK4ai-2" target="pmIC2eHcT4sqSz_BK4ai-0" edge="1">
          <mxGeometry relative="1" as="geometry" />
        </mxCell>
        <mxCell id="pmIC2eHcT4sqSz_BK4ai-2" value="tiene" style="rhombus;whiteSpace=wrap;html=1;" parent="WIyWlLk6GJQsqaUBKTNV-1" vertex="1">
          <mxGeometry x="-180" y="37" width="80" height="80" as="geometry" />
        </mxCell>
        <mxCell id="pmIC2eHcT4sqSz_BK4ai-7" value="1" style="text;html=1;align=center;verticalAlign=middle;resizable=0;points=[];autosize=1;strokeColor=none;fillColor=none;fontStyle=1" parent="WIyWlLk6GJQsqaUBKTNV-1" vertex="1">
          <mxGeometry x="230" y="460" width="30" height="30" as="geometry" />
        </mxCell>
        <mxCell id="pmIC2eHcT4sqSz_BK4ai-9" value="1" style="text;html=1;align=center;verticalAlign=middle;resizable=0;points=[];autosize=1;strokeColor=none;fillColor=none;fontStyle=1" parent="WIyWlLk6GJQsqaUBKTNV-1" vertex="1">
          <mxGeometry x="-170" y="290" width="30" height="30" as="geometry" />
        </mxCell>
        <mxCell id="pmIC2eHcT4sqSz_BK4ai-10" value="1" style="text;html=1;align=center;verticalAlign=middle;resizable=0;points=[];autosize=1;strokeColor=none;fillColor=none;fontStyle=1" parent="WIyWlLk6GJQsqaUBKTNV-1" vertex="1">
          <mxGeometry x="-60" y="-160" width="30" height="30" as="geometry" />
        </mxCell>
        <mxCell id="pmIC2eHcT4sqSz_BK4ai-11" value="N" style="text;html=1;align=center;verticalAlign=middle;resizable=0;points=[];autosize=1;strokeColor=none;fillColor=none;fontStyle=1" parent="WIyWlLk6GJQsqaUBKTNV-1" vertex="1">
          <mxGeometry x="-170" y="200" width="30" height="30" as="geometry" />
        </mxCell>
        <mxCell id="pmIC2eHcT4sqSz_BK4ai-12" value="&lt;u&gt;idEnvio&lt;/u&gt;&lt;div&gt;&lt;span style=&quot;font-weight: 400;&quot;&gt;idOrden&lt;/span&gt;&lt;u&gt;&lt;br&gt;&lt;/u&gt;&lt;div&gt;&lt;span style=&quot;font-weight: normal;&quot;&gt;idDireccion&lt;/span&gt;&lt;/div&gt;&lt;div&gt;&lt;span style=&quot;font-weight: 400;&quot;&gt;fecha&lt;br&gt;&lt;/span&gt;&lt;span style=&quot;font-weight: normal;&quot;&gt;tipo&lt;/span&gt;&lt;/div&gt;&lt;div&gt;&lt;span style=&quot;font-weight: normal;&quot;&gt;estado&lt;/span&gt;&lt;br style=&quot;border-color: var(--border-color); font-weight: 400;&quot;&gt;&lt;span style=&quot;font-weight: 400;&quot;&gt;monto&lt;/span&gt;&lt;br&gt;&lt;div style=&quot;font-weight: normal;&quot;&gt;&lt;/div&gt;&lt;/div&gt;&lt;/div&gt;" style="text;html=1;strokeColor=none;fillColor=none;align=left;verticalAlign=middle;whiteSpace=wrap;rounded=0;fontStyle=1" parent="WIyWlLk6GJQsqaUBKTNV-1" vertex="1">
          <mxGeometry x="-130" y="292.5" width="70" height="92.5" as="geometry" />
        </mxCell>
      </root>
    </mxGraphModel>
  </diagram>
</mxfile>
